<svg version="1.1" id="Layer_1" xmlns="http://www.w3.org/2000/svg" xmlns:xlink="http://www.w3.org/1999/xlink" x="0px" y="0px" viewBox="0 0 250 32" enable-background="new 0 0 250 32" xml:space="preserve">

	<style>
		path { fill: rgb(204, 204, 204); }
	</style>
	<g>
		<path d="M27.5,18.6c-0.7,1-3.3,4.6-5.6,7c-4.4,4.7-8.6,6.2-12.8,6.2c-4.3,0-9.1-2.9-9.1-9.5c0-4.5,2.9-8.5,7.6-8.5
		c2.6,0,3.2,1.7,3.2,2.3c0,1.5-1.1,2.2-2.3,2.2c-1,0-1.5-0.6-1.9-1c-0.7-0.7-1.2-0.8-1.7-0.8c-0.8,0-3.1,1.4-3.1,4.7
		c0,5.3,4.8,6.6,8.1,6.6c7.1,0,12.4-5.6,18-12.8c4.3-5.6,8.1-10.3,10-11.9c2-1.7,4.1-2.9,8-2.9c3.1,0,5.4,1,5.4,2.6
		c0,0.5-0.5,1-1.2,1c-0.8,0-1.3-0.5-1.6-0.9c-0.2-0.4-1-0.8-1.6-0.8C46,2,45.6,2.6,45,4.6l-6.2,19.2c-0.3,1-0.5,1.8-0.5,2.3
		c0,0.7,0.4,1.2,1.1,1.2h1.5c0.2,0,0.3,0.1,0.3,0.3l-0.1,1c0,0.2-0.1,0.3-0.5,0.3c-0.5,0-2.2-0.1-6.3-0.1c-3.7,0-5.1,0.1-5.7,0.1
		c-0.4,0-0.4-0.2-0.4-0.4l0.1-0.9c0-0.2,0.1-0.3,0.4-0.3h0.9c1.2,0,2.3-0.3,3-2.3l2.2-6.5L27.5,18.6L27.5,18.6z M35.3,17l4.3-12.3
		c0.2-0.6-0.1-0.8-0.2-0.8c-0.2,0-0.6,0.3-1,0.7C36.7,6,31.2,13.3,28.8,17H35.3z"></path><path d="M59.6,0.5c0.4,0,0.5,0.2,0.3,0.7l-8.4,23.5c-0.4,1.2-0.4,1.8,0.4,1.8c1,0,2.5-1.5,3-2c0.1-0.1,0.2-0.1,0.4,0l0.5,0.5
		c0.1,0.1,0.1,0.2,0,0.5c-0.2,0.3-3.4,3.8-7.8,3.8c-0.9,0-1.8-1-1.8-1.7c0-0.7,0.7-2.7,1.2-3.9l6.6-19C54.5,3.1,54.3,2,53.1,2h-1.2
		c-0.3,0-0.4-0.2-0.3-0.4l0.2-0.8c0.1-0.2,0.2-0.3,0.4-0.3L59.6,0.5L59.6,0.5z"></path><path d="M76,10.8c0.3,0,0.4,0.2,0.3,0.5c-0.6,1.8-2.6,7.3-3,8.7c-0.2,0.7-1.6,5.4-1.6,6c0,0.3,0.2,0.5,0.5,0.5c0.7,0,2-1.9,2.3-2.3
		C74.8,24,74.9,24,75,24l0.5,0.3c0.1,0.1,0.1,0.2,0,0.5c-0.4,0.8-2.7,4.4-6.6,4.4c-1.2,0-1.7-0.7-1.7-1.3c0-0.5,0.2-1.3,1.6-5.5
		l-0.4-0.2c-1.6,2.5-4.4,7-8.3,7c-1.1,0-2.9-1.6-2.9-3.2c0-5.3,5.2-15,11.2-15c1.9,0,2.7,0.8,3.2,1.5l0.7-1.2
		c0.2-0.3,0.5-0.5,0.7-0.5L76,10.8L76,10.8z M63.2,25.9c1.1,0,5-5.5,5.8-7.2c0.5-1.1,1-2.5,1-4c0-0.9-1-1.9-1.8-1.9
		c-1,0-2,0.9-3.1,2.8c-2.1,3.7-2.8,7-2.8,9C62.2,25.6,62.5,25.9,63.2,25.9L63.2,25.9z"></path><path d="M78.2,28.9c-0.3,0-0.5-0.2-0.4-0.5l2.7-7.9c0.9-2.6,2-5.4,1.9-6c0-0.3-0.1-0.6-0.5-0.6c-0.5,0-2.5,2.1-2.8,2.6
		c-0.1,0.2-0.3,0.2-0.5,0L78.2,16c-0.1-0.1-0.2-0.2-0.1-0.4c0.6-1,3.6-4.7,7-4.7c1.8,0,2.3,0.6,2.3,1.6c0,1.2-2.2,6-2.6,6.9l0.4,0.3
		c1.7-2.8,5-8.7,8.9-8.7c1.4,0,2.6,1,2.6,2c0,1.2-1.6,5.3-2.1,6.6L95,20c2.2-3.4,5.2-9,9.3-9c1.7,0,2.5,1.5,2.5,2.3
		c0,1.4-1.1,4.6-2.2,7.6c-0.8,2.4-1.6,4.2-1.6,4.8c0,0.3,0.2,0.6,0.5,0.6c1,0,2.7-2.6,3-3c0.1-0.2,0.2-0.2,0.3-0.2l0.6,0.4
		c0.2,0.1,0.2,0.2,0,0.5c-0.1,0.3-3,5.2-7.6,5.2c-1.4,0-1.9-0.8-1.9-1.5c0-0.8,0.7-3.1,2.2-7.2c1.3-3.4,1.7-4.6,1.7-5.4
		c0-0.5-0.2-0.8-0.7-0.8c-0.7,0-3.5,3.5-6.2,7.5c-0.3,0.5-0.9,1.5-1.4,3l-1.3,3.7c-0.1,0.2-0.2,0.2-0.6,0.2h-3.5
		c-0.4,0-0.5-0.2-0.4-0.5l2.5-7c1-2.9,1.9-5.5,1.9-6.1c0-0.5-0.1-0.8-0.7-0.8c-0.7,0-3.6,3.3-6,7c-0.5,0.8-1.2,2-1.7,3.5l-1.4,3.7
		c-0.1,0.2-0.3,0.3-0.6,0.3L78.2,28.9L78.2,28.9z"></path><path d="M122.5,24.7c0.2,0.1,0.2,0.2,0.1,0.4c-0.7,1.5-3.9,4.2-8,4.2c-2.8,0-4.9-1.7-4.9-4.7c0-3.1,1.3-7.5,5.1-10.7
		c2-1.7,4.5-2.9,7-2.9c2.3,0,3.2,1.3,3.2,2.9c0,2.3-1.4,4-3.8,5.5c-2.3,1.3-4.6,1.7-6.2,1.8c-0.2,0.4-0.3,1.5-0.3,2.6
		c0,1.5,0.8,2.7,2.2,2.7c2,0,3.5-1.1,4.5-2.2c0.1-0.1,0.2-0.2,0.3-0.1L122.5,24.7z M119.2,18c0.7-0.6,1.3-2,1.3-3.4
		c0-0.7-0.2-1.4-1.1-1.4c-1.6,0-3.4,3.8-4,6.5C116.1,19.7,118,19.1,119.2,18z"></path><path d="M147.5,0.5c0.6,0,0.7,0.4,0.5,0.9c-0.5,1.5-6.7,21-7.3,23.6c-0.2,1.2-0.2,1.8,0.3,1.8c0.6,0,2.2-1.8,2.4-2
		c0.2-0.2,0.3-0.2,0.4,0l0.5,0.5c0.1,0.1,0.1,0.2,0,0.4c-0.3,0.4-2.9,3.7-7,3.7c-1,0-1.6-0.5-1.6-1.2c0-1.1,0.7-3.3,1.5-5.6
		l-0.5-0.2c-2,3.2-4.6,7.1-7.9,7.1c-2.1,0-3.3-2.2-3.3-3.9c0-2.6,1.5-7.2,4.9-11c1.2-1.3,3.5-3.4,6.3-3.4c1.2,0,2.4,0.5,3.2,1.3
		l2.3-8.6c0.2-0.9-0.1-1.7-1.2-1.7h-1.2c-0.3,0-0.4-0.2-0.3-0.3l0.2-1c0-0.2,0.1-0.2,0.7-0.2L147.5,0.5L147.5,0.5z M136.5,12.5
		c-2.2,0-5.7,9.2-5.7,12.3c0,1,0.4,1.5,1,1.5c0.8,0,2.6-2.6,4.2-4.9c1.2-1.6,2.6-4.6,2.6-6.2C138.6,13.7,137.9,12.5,136.5,12.5z"></path><path d="M164.8,10.8c0.3,0,0.4,0.2,0.3,0.5c-0.6,1.8-2.6,7.3-3,8.7c-0.2,0.7-1.6,5.4-1.6,6c0,0.3,0.2,0.5,0.5,0.5
		c0.7,0,2-1.9,2.3-2.3c0.2-0.2,0.3-0.2,0.4-0.2l0.5,0.3c0.1,0.1,0.1,0.2,0,0.5c-0.4,0.8-2.7,4.4-6.6,4.4c-1.2,0-1.7-0.7-1.7-1.3
		c0-0.5,0.2-1.3,1.6-5.5l-0.4-0.2c-1.6,2.5-4.4,7-8.3,7c-1.1,0-2.9-1.6-2.9-3.2c0-5.3,5.2-15,11.2-15c1.9,0,2.7,0.8,3.2,1.5l0.7-1.2
		c0.2-0.3,0.5-0.5,0.7-0.5L164.8,10.8L164.8,10.8z M151.9,25.9c1.1,0,5-5.5,5.8-7.2c0.5-1.1,1-2.5,1-4c0-0.9-1-1.9-1.8-1.9
		c-1,0-2,0.9-3.1,2.8c-2.1,3.7-2.8,7-2.8,9C150.9,25.6,151.3,25.9,151.9,25.9L151.9,25.9z"></path><path d="M189,4.8c0.5-1.8,0-2-1.4-2c-2.6,0-6.1,0.7-8.6,2.4c-2.4,1.6-5.4,3.9-5.4,6.5c0,1.7,1.3,2.5,2.4,2.5c0.7,0,1.1-0.5,1.4-1
		c0.5-0.8,1.2-1.3,2.3-1.3c1.2,0,1.9,0.8,1.9,2c0,1.8-1.6,3.1-4,3.1c-3,0-6-2-6-6c0-2.7,1.1-5.4,3.9-7.5c3.9-3,9.9-2.8,18.4-2.8
		c3.2,0,7.1-0.2,10.2,2c1.7,1.2,2.7,3.1,2.7,5.5c0,4-3.4,9.1-10.7,9.1c-1.2,0-3.6,0-5-0.5l-2,7.5c-0.4,1.5-0.7,3,1.4,3h1.6
		c0.3,0,0.4,0.2,0.3,0.4l-0.1,0.9c0,0.2-0.1,0.3-0.5,0.3c-0.5,0-2.2-0.1-7.7-0.1c-2.8,0-4.4,0.1-5,0.1c-0.2,0-0.4-0.1-0.3-0.4
		l0.1-0.8c0-0.2,0.2-0.4,0.5-0.4h0.9c2.2,0,2.6-1.3,3.2-3.2L189,4.8z M191.7,14.7c-0.2,0.8,1.3,1.2,3.1,1.2c6.3,0,6.9-6.8,6.9-7.7
		c0-3.1-2.2-5.8-5.2-5.8c-0.7,0-1.2,0-1.5,0.6L191.7,14.7z"></path><path d="M205,22.9c0-3.4,1-6.9,3.3-9.5c1.7-1.8,3.7-2.4,6-2.4c2.3,0,5.9,1,5.9,6.2c0,2.5-0.9,6.9-3.5,9.7c-1.6,1.7-3.5,2.4-6.2,2.4
		C208.1,29.3,205,27.6,205,22.9z M214.2,22.7c1.3-2.4,2.5-6,2.5-7.5c0-1-0.4-1.8-1.5-1.8c-1.6,0-2.8,1.5-4.7,4.9
		c-1.4,2.5-2.1,5.1-2.1,6.8c0,0.8,0.5,1.8,1.5,1.8C211.2,26.9,212.5,26,214.2,22.7z"></path><path d="M236.8,14.1c-0.2,0-0.3-0.2-0.2-0.5l0.2-1.1c0.1-0.2,0.2-0.3,0.5-0.3h3.5l3-8.4l-0.3-0.1c-0.9,0.6-2.5,1-3.7,1
		c-2.1,0-4-0.4-6.1-0.4c-1.9,0-4.2,1.1-4.2,4c0,1,0.2,1.8,1.2,2.7c1.8-0.1,3.9,0.8,4,2.5c0,1.2-0.7,2.1-1.9,2.1
		c-0.9,0-1.7-0.4-1.8-1.7c-0.1-0.6-0.4-1.2-1-1.2c-0.8,0-1.5,0.2-1.5,2.3c0,1.5,1.5,3.2,2.2,4.1c1.3,1.6,1.5,2.6,1.5,4.3
		c0,3.3-2.5,6-7,6c-3,0-4.5-1-4.5-2.5c0-1.3,0.8-2,1.8-2c1.1,0,1.7,0.7,2.2,2c0.2,0.6,0.7,1,1.1,1c1.2,0,1.9-0.9,2-2.8
		c0-1.3-0.9-2.1-2-4c-1.2-2-1.7-2.7-1.7-4.4c0-2.5,1.7-4.8,4.9-5.5c-1.3-1.3-1.9-2.5-1.9-4.3c0-2.2,2-5.1,6.5-5.1
		c1.5,0,2.7,0.2,3.9,0.4c1.2,0.2,2.7,0.5,4.1,0.5c3.4,0,4.8-2.2,5.8-2.2c0.5,0,1.8,0.7,1.8,1.1c0,0.5-0.1,0.9-0.3,1.5l-3.5,9.2h4.4
		c0.2,0,0.3,0.1,0.2,0.4l-0.3,1.1c-0.1,0.2-0.2,0.4-0.5,0.4h-4.3l-3.3,9.2c-0.2,0.7-0.6,1.7-0.6,2.2c0,0.4,0.3,0.8,0.9,0.8
		c0.8,0,3.3-1.7,3.5-2c0.1-0.2,0.2-0.1,0.4,0l0.5,0.5c0.1,0.1,0.2,0.2,0.1,0.3c-0.5,0.7-4.1,4.2-8.4,4.2c-1.5,0-2.2-0.9-2.2-1.5
		c0-0.8,0.1-1.7,0.5-2.6l3.8-11.1L236.8,14.1z"></path>
	</g>
</svg>