<svg xmlns="http://www.w3.org/2000/svg" xmlns:xlink="http://www.w3.org/1999/xlink" width="25" zoomAndPan="magnify" viewBox="0 0 18.75 23.25" height="31" preserveAspectRatio="xMidYMid meet" version="1.0"><defs><clipPath id="d12baf571b"><path d="M 4.296875 4.738281 L 13.984375 4.738281 L 13.984375 17 L 4.296875 17 Z M 4.296875 4.738281 " clip-rule="nonzero"/></clipPath><clipPath id="0e01e2b96f"><path d="M 0.171875 8 L 4 8 L 4 10 L 0.171875 10 Z M 0.171875 8 " clip-rule="nonzero"/></clipPath><clipPath id="1eb18753cb"><path d="M 15 8 L 18.28125 8 L 18.28125 10 L 15 10 Z M 15 8 " clip-rule="nonzero"/></clipPath><clipPath id="992d5a1e6b"><path d="M 8 21 L 11 21 L 11 21.902344 L 8 21.902344 Z M 8 21 " clip-rule="nonzero"/></clipPath></defs><g clip-path="url(#d12baf571b)"><path fill="#ffffff" d="M 10.980469 16.964844 C 11.304688 16.964844 11.632812 16.636719 11.632812 16.3125 C 11.632812 13.539062 14.078125 13.164062 14.078125 9.628906 C 14.078125 6.929688 11.886719 4.738281 9.1875 4.738281 C 6.488281 4.738281 4.296875 6.929688 4.296875 9.628906 C 4.296875 13.164062 6.742188 13.539062 6.742188 16.3125 C 6.742188 16.636719 7.070312 16.964844 7.394531 16.964844 Z M 10.980469 16.964844 " fill-opacity="1" fill-rule="nonzero"/></g><path fill="#000000" d="M 11.597656 17.058594 L 11.597656 16.375 C 11.597656 15.167969 12.089844 14.007812 12.949219 13.191406 C 14.023438 12.171875 14.617188 10.796875 14.617188 9.320312 C 14.617188 6.371094 12.203125 3.972656 9.238281 3.972656 C 9.035156 3.972656 8.832031 3.984375 8.628906 4.007812 C 6.058594 4.289062 4.011719 6.441406 3.871094 9.015625 C 3.78125 10.570312 4.375 12.078125 5.496094 13.160156 C 6.375 14.007812 6.882812 15.179688 6.882812 16.371094 L 6.882812 17.058594 C 6.882812 17.789062 7.480469 18.382812 8.214844 18.382812 L 10.265625 18.382812 C 11 18.382812 11.597656 17.789062 11.597656 17.058594 Z M 10.617188 17.058594 C 10.617188 17.253906 10.460938 17.410156 10.265625 17.410156 L 8.214844 17.410156 C 8.019531 17.410156 7.863281 17.253906 7.863281 17.058594 L 7.863281 16.371094 C 7.863281 14.917969 7.246094 13.492188 6.175781 12.460938 C 5.261719 11.578125 4.777344 10.339844 4.847656 9.070312 C 4.964844 6.964844 6.636719 5.203125 8.738281 4.972656 C 8.902344 4.957031 9.074219 4.945312 9.238281 4.945312 C 11.664062 4.945312 13.640625 6.910156 13.640625 9.320312 C 13.640625 10.527344 13.15625 11.652344 12.273438 12.488281 C 11.222656 13.484375 10.617188 14.902344 10.617188 16.375 Z M 10.617188 17.058594 " fill-opacity="1" fill-rule="nonzero"/><path fill="#000000" d="M 10.832031 18.863281 L 7.648438 18.863281 C 7.445312 18.863281 7.28125 19.027344 7.28125 19.230469 C 7.28125 19.429688 7.445312 19.59375 7.648438 19.59375 L 10.832031 19.59375 C 11.035156 19.59375 11.199219 19.429688 11.199219 19.230469 C 11.199219 19.027344 11.035156 18.863281 10.832031 18.863281 Z M 10.832031 18.863281 " fill-opacity="1" fill-rule="nonzero"/><path fill="#000000" d="M 11.199219 20.382812 C 11.199219 20.179688 11.035156 20.019531 10.832031 20.019531 L 7.648438 20.019531 C 7.445312 20.019531 7.28125 20.179688 7.28125 20.382812 C 7.28125 20.585938 7.445312 20.746094 7.648438 20.746094 L 10.832031 20.746094 C 11.035156 20.746094 11.199219 20.585938 11.199219 20.382812 Z M 11.199219 20.382812 " fill-opacity="1" fill-rule="nonzero"/><g clip-path="url(#0e01e2b96f)"><path fill="#000000" d="M 0.609375 9.3125 L 2.722656 9.3125 C 2.925781 9.3125 3.089844 9.148438 3.089844 8.945312 C 3.089844 8.746094 2.925781 8.582031 2.722656 8.582031 L 0.609375 8.582031 C 0.40625 8.582031 0.242188 8.746094 0.242188 8.945312 C 0.242188 9.148438 0.40625 9.3125 0.609375 9.3125 Z M 0.609375 9.3125 " fill-opacity="1" fill-rule="nonzero"/></g><g clip-path="url(#1eb18753cb)"><path fill="#000000" d="M 18.234375 8.945312 C 18.234375 8.746094 18.070312 8.582031 17.871094 8.582031 L 15.753906 8.582031 C 15.550781 8.582031 15.386719 8.746094 15.386719 8.945312 C 15.386719 9.148438 15.550781 9.3125 15.753906 9.3125 L 17.871094 9.3125 C 18.070312 9.3125 18.234375 9.148438 18.234375 8.945312 Z M 18.234375 8.945312 " fill-opacity="1" fill-rule="nonzero"/></g><path fill="#000000" d="M 8.871094 0.363281 L 8.871094 2.46875 C 8.871094 2.671875 9.035156 2.832031 9.238281 2.832031 C 9.441406 2.832031 9.605469 2.671875 9.605469 2.46875 L 9.605469 0.363281 C 9.605469 0.164062 9.441406 0 9.238281 0 C 9.035156 0 8.871094 0.164062 8.871094 0.363281 Z M 8.871094 0.363281 " fill-opacity="1" fill-rule="nonzero"/><path fill="#000000" d="M 15.082031 2.621094 L 13.585938 4.109375 C 13.441406 4.25 13.441406 4.480469 13.585938 4.625 C 13.660156 4.695312 13.753906 4.730469 13.847656 4.730469 C 13.941406 4.730469 14.035156 4.695312 14.105469 4.625 L 15.601562 3.136719 C 15.746094 2.996094 15.746094 2.761719 15.601562 2.621094 C 15.457031 2.476562 15.226562 2.476562 15.082031 2.621094 Z M 15.082031 2.621094 " fill-opacity="1" fill-rule="nonzero"/><path fill="#000000" d="M 4.890625 13.269531 C 4.75 13.128906 4.515625 13.128906 4.371094 13.269531 L 2.878906 14.757812 C 2.734375 14.898438 2.734375 15.132812 2.878906 15.273438 C 2.949219 15.34375 3.042969 15.378906 3.136719 15.378906 C 3.230469 15.378906 3.324219 15.34375 3.398438 15.273438 L 4.890625 13.785156 C 5.035156 13.644531 5.035156 13.414062 4.890625 13.269531 Z M 4.890625 13.269531 " fill-opacity="1" fill-rule="nonzero"/><path fill="#000000" d="M 4.371094 4.625 C 4.445312 4.695312 4.539062 4.730469 4.632812 4.730469 C 4.726562 4.730469 4.820312 4.695312 4.890625 4.625 C 5.035156 4.480469 5.035156 4.25 4.890625 4.109375 L 3.398438 2.621094 C 3.253906 2.476562 3.019531 2.476562 2.878906 2.621094 C 2.734375 2.761719 2.734375 2.996094 2.878906 3.136719 Z M 4.371094 4.625 " fill-opacity="1" fill-rule="nonzero"/><path fill="#000000" d="M 15.082031 15.273438 C 15.152344 15.34375 15.246094 15.378906 15.339844 15.378906 C 15.4375 15.378906 15.53125 15.34375 15.601562 15.273438 C 15.746094 15.132812 15.746094 14.898438 15.601562 14.757812 L 14.105469 13.269531 C 13.960938 13.128906 13.730469 13.128906 13.585938 13.269531 C 13.445312 13.414062 13.445312 13.644531 13.585938 13.785156 Z M 15.082031 15.273438 " fill-opacity="1" fill-rule="nonzero"/><g clip-path="url(#992d5a1e6b)"><path fill="#000000" d="M 10.402344 21.535156 C 10.402344 21.335938 10.238281 21.171875 10.035156 21.171875 L 8.441406 21.171875 C 8.238281 21.171875 8.074219 21.335938 8.074219 21.535156 C 8.074219 21.738281 8.238281 21.902344 8.441406 21.902344 L 10.035156 21.902344 C 10.238281 21.902344 10.402344 21.738281 10.402344 21.535156 Z M 10.402344 21.535156 " fill-opacity="1" fill-rule="nonzero"/></g></svg>